<svg width="303" height="82" viewBox="0 0 303 82" fill="none" xmlns="http://www.w3.org/2000/svg">
<g clip-path="url(#clip0_378_21442)">
<g clip-path="url(#clip1_378_21442)">
<path d="M0 22C0 18.6863 2.68629 16 6 16H10C13.3137 16 16 18.6863 16 22V82H0V22Z" fill="#D6BBFB"/>
<path d="M22.0769 26C22.0769 22.6863 24.7632 20 28.0769 20H32.0769C35.3906 20 38.0769 22.6863 38.0769 26V82H22.0769V26Z" fill="#D6BBFB"/>
<path d="M44.1539 22C44.1539 18.6863 46.8402 16 50.1539 16H54.1539C57.4676 16 60.1539 18.6863 60.1539 22V82H44.1539V22Z" fill="#D6BBFB"/>
<path d="M66.2308 13C66.2308 9.68629 68.9171 7 72.2308 7H76.2308C79.5445 7 82.2308 9.68629 82.2308 13V82H66.2308V13Z" fill="#D6BBFB"/>
<path d="M88.3077 30C88.3077 26.6863 90.994 24 94.3077 24H98.3077C101.621 24 104.308 26.6863 104.308 30V82H88.3077V30Z" fill="#D6BBFB"/>
<path d="M110.385 27C110.385 23.6863 113.071 21 116.385 21H120.385C123.698 21 126.385 23.6863 126.385 27V82H110.385V27Z" fill="#D6BBFB"/>
<path d="M132.462 22C132.462 18.6863 135.148 16 138.462 16H142.462C145.775 16 148.462 18.6863 148.462 22V82H132.462V22Z" fill="#D6BBFB"/>
<path d="M154.538 29C154.538 25.6863 157.225 23 160.538 23H164.538C167.852 23 170.538 25.6863 170.538 29V82H154.538V29Z" fill="#D6BBFB"/>
<path d="M176.615 30C176.615 26.6863 179.302 24 182.615 24H186.615C189.929 24 192.615 26.6863 192.615 30V82H176.615V30Z" fill="#D6BBFB"/>
<path d="M198.692 38C198.692 34.6863 201.379 32 204.692 32H208.692C212.006 32 214.692 34.6863 214.692 38V82H198.692V38Z" fill="#D6BBFB"/>
<path d="M220.769 20C220.769 16.6863 223.456 14 226.769 14H230.769C234.083 14 236.769 16.6863 236.769 20V82H220.769V20Z" fill="#D6BBFB"/>
<path d="M242.846 26C242.846 22.6863 245.532 20 248.846 20H252.846C256.16 20 258.846 22.6863 258.846 26V82H242.846V26Z" fill="#D6BBFB"/>
<path d="M264.923 17C264.923 13.6863 267.609 11 270.923 11H274.923C278.237 11 280.923 13.6863 280.923 17V82H264.923V17Z" fill="#D6BBFB"/>
<path d="M287 30C287 26.6863 289.686 24 293 24H297C300.314 24 303 26.6863 303 30V82H287V30Z" fill="#D6BBFB"/>
</g>
</g>
<defs>
<clipPath id="clip0_378_21442">
<rect width="303" height="82" fill="white"/>
</clipPath>
<clipPath id="clip1_378_21442">
<rect width="303" height="82" fill="white"/>
</clipPath>
</defs>
</svg>
